<?xml version="1.0" standalone="no"?>
<!DOCTYPE svg PUBLIC "-//W3C//DTD SVG 20010904//EN"
 "http://www.w3.org/TR/2001/REC-SVG-20010904/DTD/svg10.dtd">
<svg version="1.0" xmlns="http://www.w3.org/2000/svg"
 width="84.000000pt" height="73.000000pt" viewBox="0 0 84.000000 73.000000"
 preserveAspectRatio="xMidYMid meet">
<metadata>
Created by potrace 1.16, written by Peter Selinger 2001-2019
</metadata>
<g transform="translate(0.000000,73.000000) scale(0.100000,-0.100000)"
fill="#000000" stroke="none">
<path d="M200 566 l0 -154 90 -56 c50 -31 95 -56 100 -56 12 0 14 279 2 296
-7 11 -123 88 -169 113 l-23 12 0 -155z"/>
<path d="M633 368 l-203 -131 0 -72 0 -73 -65 -42 c-36 -24 -63 -45 -61 -48 3
-2 27 10 54 27 27 17 56 31 65 31 9 0 39 -14 67 -31 28 -17 53 -29 56 -27 2 3
-18 19 -46 36 -27 17 -50 35 -50 39 0 4 43 36 95 70 l94 63 3 72 3 72 95 64
c79 53 116 83 98 82 -1 0 -94 -60 -205 -132z"/>
<path d="M4 482 c3 -6 51 -38 106 -72 l99 -61 3 -72 3 -72 80 -52 c44 -29 83
-53 88 -53 4 0 7 33 7 74 l0 73 -173 110 c-187 119 -223 140 -213 125z"/>
</g>
</svg>
