<svg xmlns="http://www.w3.org/2000/svg"  viewBox="0 0 48 48" width="48px" height="48px"><path d="M 15 3 C 12.250484 3 10 5.2504839 10 8 L 10 45 A 1.0001 1.0001 0 0 0 11.609375 45.792969 L 25.904297 34.796875 A 1.0006638 1.0006638 0 1 0 24.683594 33.210938 L 12 42.96875 L 12 8 C 12 6.3315161 13.331516 5 15 5 L 33 5 C 34.668484 5 36 6.3315161 36 8 L 36 42.96875 L 27.681641 36.570312 A 1.0001 1.0001 0 1 0 26.462891 38.15625 L 36.390625 45.792969 A 1.0001 1.0001 0 0 0 38 45 L 38 8 C 38 5.2504839 35.749516 3 33 3 L 15 3 z"/></svg>